<?xml version="1.0" standalone="no"?>
<!DOCTYPE svg PUBLIC "-//W3C//DTD SVG 20010904//EN"
 "http://www.w3.org/TR/2001/REC-SVG-20010904/DTD/svg10.dtd">
<svg version="1.0" xmlns="http://www.w3.org/2000/svg"
 width="513.000000pt" height="513.000000pt" viewBox="0 0 513.000000 513.000000"
 preserveAspectRatio="xMidYMid meet">
<metadata>
Created by potrace 1.14, written by Peter Selinger 2001-2017
</metadata>
<g transform="translate(0.000000,513.000000) scale(0.100000,-0.100000)"
fill="#000000" stroke="none">
<path d="M2527 5123 c-1 0 -57 -4 -124 -7 -67 -3 -128 -8 -135 -10 -7 -3 -35
-7 -63 -10 -27 -3 -59 -8 -70 -10 -11 -2 -56 -12 -100 -21 -87 -18 -176 -41
-215 -56 -14 -5 -34 -11 -45 -14 -81 -17 -411 -170 -505 -234 -25 -17 -49 -31
-53 -31 -4 0 -13 -5 -20 -10 -7 -6 -48 -37 -93 -69 -177 -128 -338 -277 -464
-431 -25 -30 -51 -61 -58 -68 -7 -8 -32 -41 -55 -74 -158 -226 -282 -467 -352
-683 -50 -157 -84 -289 -100 -395 -2 -19 -7 -46 -9 -60 -15 -87 -29 -278 -28
-385 1 -92 11 -276 17 -295 2 -8 7 -39 10 -69 4 -30 9 -63 11 -75 2 -12 7 -34
10 -51 21 -119 108 -407 154 -512 74 -164 154 -312 243 -443 28 -41 53 -77 56
-80 4 -3 26 -32 51 -65 94 -125 269 -303 405 -409 28 -22 52 -42 55 -45 10
-12 185 -131 192 -131 9 0 2 1530 -7 1531 -5 0 -68 0 -140 0 l-130 0 0 185 c0
155 2 185 15 188 8 2 66 3 128 3 63 -1 119 1 125 5 7 4 11 218 12 715 2 772 2
772 62 921 32 80 57 121 113 185 47 53 143 122 184 133 14 3 26 10 26 14 0 6
82 33 143 46 102 22 430 25 517 5 154 -36 271 -131 345 -278 l23 -45 18 29
c73 119 150 195 245 241 108 52 172 66 296 65 161 -2 280 -49 383 -152 56 -56
138 -183 139 -214 0 -4 7 -31 15 -60 8 -29 18 -79 22 -112 7 -61 12 -1143 6
-1180 -3 -20 -10 -21 -220 -20 l-217 0 -1 500 c-1 275 -4 526 -8 558 -14 112
-68 197 -154 238 -69 33 -206 33 -279 0 -102 -45 -162 -143 -189 -306 -4 -22
-7 -254 -8 -515 l-1 -475 -214 0 c-139 -1 -214 3 -217 10 -2 5 -5 253 -6 550
-3 539 -3 540 -26 595 -31 73 -94 132 -164 152 -48 14 -141 16 -193 4 -90 -21
-151 -77 -182 -168 -17 -49 -18 -108 -18 -747 l0 -694 170 -1 169 -1 1 -186 0
-186 -161 0 c-89 0 -166 -3 -171 -6 -6 -4 -10 -334 -10 -876 l0 -871 36 -10
c20 -6 45 -15 56 -20 20 -9 112 -36 154 -45 20 -5 55 -13 76 -19 42 -11 164
-34 215 -41 122 -15 174 -18 335 -18 221 -1 339 10 515 48 51 10 95 19 102 20
3 0 10 3 14 7 4 5 16 8 26 8 25 0 183 54 303 102 232 95 503 262 680 419 135
119 314 313 381 411 16 24 31 45 34 48 8 7 70 104 117 180 105 173 234 484
278 670 0 3 5 23 10 45 4 22 9 45 11 50 1 6 5 26 8 45 4 19 8 46 11 60 54 289
50 615 -10 945 -23 129 -91 348 -151 494 -43 102 -159 331 -173 341 -4 3 -10
12 -13 20 -3 8 -40 64 -82 124 -178 253 -393 466 -658 650 -37 25 -71 46 -77
46 -5 0 -11 4 -13 8 -4 10 -118 74 -213 120 -302 146 -611 228 -930 248 -116
6 -196 10 -198 7z"/>
</g>
</svg>
