<?xml version="1.0" standalone="no"?>
<!DOCTYPE svg PUBLIC "-//W3C//DTD SVG 20010904//EN"
 "http://www.w3.org/TR/2001/REC-SVG-20010904/DTD/svg10.dtd">
<svg version="1.0" xmlns="http://www.w3.org/2000/svg"
 width="512.000000pt" height="512.000000pt" viewBox="0 0 512.000000 512.000000"
 preserveAspectRatio="xMidYMid meet">
<metadata>
Created by potrace 1.14, written by Peter Selinger 2001-2017
</metadata>
<g transform="translate(0.000000,512.000000) scale(0.100000,-0.100000)"
fill="#000000" stroke="none">
<path d="M2066 4227 c-97 -166 -195 -342 -192 -345 7 -6 1029 -352 1042 -352
7 0 17 15 23 33 68 218 91 296 91 308 0 9 -163 81 -452 199 -248 102 -459 188
-469 192 -15 6 -24 -2 -43 -35z"/>
<path d="M2305 3294 c-27 -2 -124 -8 -215 -15 -162 -11 -538 -53 -546 -62 -8
-8 -77 -567 -71 -573 6 -6 270 -49 340 -56 l38 -3 38 95 c69 176 56 170 394
170 266 0 348 -10 423 -48 46 -24 85 -64 108 -110 23 -44 36 -168 29 -270 l-6
-82 -31 4 c-73 12 -208 17 -393 17 -299 0 -472 -35 -659 -135 -293 -156 -434
-386 -434 -706 0 -212 86 -396 240 -511 236 -177 682 -220 992 -95 102 41 170
88 265 183 l93 91 0 -144 0 -144 433 0 433 0 18 191 c13 139 15 194 7 199 -6
3 -77 14 -157 23 -159 19 -195 31 -213 75 -9 22 -13 191 -15 648 -1 545 -4
628 -19 692 -74 317 -299 497 -688 551 -83 11 -328 21 -404 15z m342 -1334
c71 -6 143 -13 161 -16 l32 -5 0 -73 c0 -156 -62 -308 -170 -417 -116 -117
-252 -166 -444 -157 -93 4 -112 8 -170 37 -76 37 -121 86 -141 155 -46 154 16
328 147 416 33 22 63 40 67 40 3 1 29 7 56 15 61 17 284 19 462 5z"/>
</g>
</svg>
