<?xml version="1.0" standalone="no"?>
<!DOCTYPE svg PUBLIC "-//W3C//DTD SVG 20010904//EN"
 "http://www.w3.org/TR/2001/REC-SVG-20010904/DTD/svg10.dtd">
<svg version="1.0" xmlns="http://www.w3.org/2000/svg"
 width="512.000000pt" height="512.000000pt" viewBox="0 0 512.000000 512.000000"
 preserveAspectRatio="xMidYMid meet">
<metadata>
Created by potrace 1.14, written by Peter Selinger 2001-2017
</metadata>
<g transform="translate(0.000000,512.000000) scale(0.100000,-0.100000)"
fill="#000000" stroke="none">
<path d="M2369 5115 c-2 -2 -33 -6 -69 -9 -36 -3 -76 -8 -90 -11 -13 -3 -42
-7 -65 -11 -55 -8 -146 -27 -183 -38 -9 -3 -28 -7 -42 -10 -14 -2 -72 -20
-130 -39 -518 -172 -934 -479 -1273 -939 -31 -42 -57 -79 -57 -82 0 -3 -13
-24 -29 -48 -51 -77 -181 -325 -181 -346 0 -4 -7 -19 -15 -35 -13 -26 -65
-175 -98 -282 -19 -63 -55 -225 -63 -285 -3 -25 -8 -56 -10 -70 -26 -160 -26
-552 1 -705 2 -16 7 -43 9 -60 47 -304 156 -612 316 -885 172 -295 407 -560
675 -760 112 -83 173 -122 178 -112 3 6 1 1478 -2 1510 -1 9 -35 12 -136 12
l-134 0 -3 185 c-2 102 -1 186 2 186 3 1 66 2 140 3 l135 1 1 705 c1 748 1
749 50 902 77 237 275 387 559 425 54 7 328 7 390 0 61 -7 192 -54 215 -77 3
-3 22 -18 43 -33 42 -31 103 -111 133 -173 20 -41 44 -48 44 -13 0 10 4 19 8
19 4 0 16 14 27 32 32 55 132 144 202 180 182 94 392 96 568 5 133 -68 253
-237 279 -394 3 -16 8 -44 12 -63 7 -36 14 -1186 7 -1206 -3 -8 -69 -11 -221
-10 l-217 1 -1 525 c0 289 -4 541 -9 560 -23 103 -69 166 -150 207 -41 22 -64
26 -130 26 -44 0 -87 -3 -95 -5 -8 -3 -29 -9 -45 -13 -17 -3 -46 -21 -66 -38
-39 -36 -95 -107 -84 -107 4 0 3 -6 -3 -12 -13 -17 -42 -115 -47 -165 -3 -21
-5 -248 -5 -505 l0 -468 -23 -4 c-12 -3 -110 -4 -217 -3 l-195 2 -1 510 c-2
500 -4 559 -22 621 -39 128 -152 199 -299 188 -127 -10 -214 -73 -248 -179
-18 -57 -19 -98 -20 -749 l0 -690 165 -2 c91 -1 167 -2 170 -3 5 -1 6 -338 1
-363 0 -5 -75 -8 -166 -8 -91 0 -166 -3 -166 -7 -1 -5 -2 -398 -3 -875 l-1
-868 25 -9 c36 -14 217 -70 244 -75 6 -2 38 -8 71 -15 33 -8 65 -14 70 -16
138 -29 239 -38 460 -39 164 -1 237 3 365 19 41 5 191 35 235 46 22 6 47 13
55 15 111 26 288 91 445 165 83 38 339 192 365 219 3 3 34 27 70 54 154 117
300 260 415 404 28 35 58 73 68 85 10 12 26 34 35 49 9 16 20 28 24 28 4 0 8
5 8 11 0 7 15 32 33 58 18 25 36 53 40 61 4 8 19 35 33 60 114 198 224 475
270 680 4 19 8 37 9 40 2 5 14 67 22 105 2 11 6 39 9 61 2 23 7 51 9 62 23
120 24 537 1 647 -2 11 -7 43 -10 70 -9 67 -35 203 -47 241 -5 17 -12 41 -14
54 -8 41 -48 165 -57 175 -4 5 -8 17 -8 27 0 10 -4 26 -10 36 -5 9 -21 46 -36
82 -34 83 -117 251 -156 315 -54 88 -83 130 -90 133 -5 2 -8 8 -8 13 0 13
-103 149 -112 149 -5 0 -8 7 -8 15 0 24 -318 336 -425 415 -55 41 -101 78
-103 83 -2 4 -8 7 -13 7 -6 0 -38 19 -72 42 -64 42 -283 157 -372 195 -152 64
-373 130 -500 149 -22 3 -43 8 -46 9 -3 2 -31 7 -63 10 -31 4 -67 9 -79 12
-25 6 -463 14 -468 8z"/>
</g>
</svg>
